<svg width="64" height="64" viewBox="0 0 64 64" fill="none" xmlns="http://www.w3.org/2000/svg">
<path fill-rule="evenodd" clip-rule="evenodd" d="M32.3671 61.8469C28.4952 61.8601 24.8154 60.9787 21.2758 59.4921C20.5666 59.1942 19.883 58.8368 19.1991 58.4792L19.1931 58.476C19.1918 58.4754 19.1906 58.4747 19.1893 58.4741C19.1312 58.4437 19.0731 58.4133 19.015 58.383C18.5853 58.1587 18.1546 57.9364 17.7164 57.7309C17.4149 57.5894 17.0172 57.5361 16.6874 57.5889C14.4329 57.9501 12.3973 57.5747 10.7191 55.9245C9.80312 55.024 9.27021 53.9342 9.16642 52.6466C9.02376 50.876 8.17106 49.6215 6.54423 48.8276C6.26363 48.6906 6.07255 48.0538 6.09795 47.6645C6.26469 45.0998 5.52574 42.8269 3.93307 40.8448C2.52651 39.0942 2.35165 36.1643 3.62916 33.9779C3.66535 33.916 3.70108 33.8532 3.7368 33.7902L3.76153 33.7465L3.7616 33.7464C3.95482 33.4051 4.15084 33.0589 4.42032 32.7907C5.10375 32.111 5.28828 31.2485 5.47173 30.3911C5.51713 30.1789 5.56246 29.967 5.61526 29.7583C7.58212 21.9894 12.0532 16.1572 19.1009 12.2687C20.9398 11.2542 22.8391 10.4126 24.8803 9.93772C26.2293 9.62385 27.1793 8.80646 28.1198 7.875C28.7728 7.22822 29.5397 6.67712 30.3178 6.17998C30.9617 5.7686 31.7114 5.80562 32.3691 6.20709C33.5218 6.9107 34.5005 6.64324 35.4493 5.80681C35.483 5.77709 35.5168 5.74734 35.5505 5.71759C36.4762 4.90071 37.4088 4.07784 38.6313 3.70796C41.456 2.85328 44.1354 3.87441 45.0873 6.854C45.1954 7.19238 45.1891 7.58929 45.1472 7.94878C45.0052 9.16478 45.5868 9.96224 46.6235 10.4417C48.4175 11.271 50.2294 12.0625 52.0409 12.8539L52.448 13.0318C54.0758 13.7432 55.6207 14.5786 56.7772 15.9652C58.5439 18.0841 59.4903 20.4568 58.8066 23.2444C58.5941 24.1109 58.7462 24.895 59.1223 25.6306C59.8244 27.005 59.9103 28.4371 59.4776 29.8571C59.2008 30.7656 59.2153 31.6392 59.3015 32.5374C59.6517 36.184 59.3014 39.7397 58.1697 43.2443C56.0288 49.8731 51.8684 54.8447 45.8338 58.2537C42.2958 60.2523 38.4674 61.436 34.381 61.6989C33.922 61.7283 33.4635 61.7634 33.005 61.7986L33.0047 61.7986L33.0045 61.7986C32.792 61.8149 32.5796 61.8312 32.3671 61.8469Z" fill="url(#paint0_linear_343_245)"/>
<path d="M56.0933 6.28437C58.4031 6.28046 60.0973 8.46324 59.3602 10.4935C59.0377 11.3819 58.3502 11.8101 57.401 11.7845C56.8306 11.7691 56.2515 11.7925 55.6876 11.8757C54.3786 12.069 53.18 11.1944 53.0384 9.80477C52.8245 7.70711 54.4594 6.23536 56.0933 6.28437Z" fill="url(#paint1_linear_343_245)"/>
<path d="M3.92137 52.5343C3.95356 51.635 4.67432 50.8718 5.44664 50.9192C6.14266 50.9621 6.96497 51.8969 6.94259 52.62C6.91772 53.4258 6.14396 54.1822 5.38852 54.1393C4.57929 54.0935 3.89244 53.3422 3.92137 52.5343Z" fill="url(#paint2_linear_343_245)"/>
<path d="M59.7391 13.7782C59.7675 13.3276 60.0236 13.0569 60.4812 13.0634C60.978 13.0705 61.2195 13.4074 61.2231 13.8697C61.2265 14.3042 60.9373 14.5704 60.5227 14.5684C60.0553 14.5662 59.7593 14.2951 59.7391 13.7782Z" fill="url(#paint3_linear_343_245)"/>
<path fill-rule="evenodd" clip-rule="evenodd" d="M20.5564 43.2773C21.5633 43.8356 22.5758 44.1197 23.2206 45.0913C23.7755 45.9275 24.5127 46.6438 25.2427 47.4994C26.0078 46.5856 26.7039 45.794 27.3495 44.9637C27.5945 44.6486 27.8252 44.5825 28.2193 44.5818C30.5182 44.5778 32.817 44.51 35.116 44.4959C35.3507 44.4945 35.6407 44.6529 35.8131 44.8273C36.6952 45.7193 37.5472 46.641 38.5263 47.6754C39.2675 46.564 39.8702 45.6213 40.5183 44.7108C40.7289 44.4148 41.0207 44.1287 41.3411 43.9674C42.1093 43.5805 42.9163 43.2705 43.8518 42.8674C43.5935 44.1172 42.9199 45.0335 42.2645 45.9249C42.2486 45.9466 42.2327 45.9682 42.2168 45.9898C39.9884 49.023 36.9501 50.7127 33.208 51.0826C29.8243 51.4169 26.7962 50.4393 24.1518 48.3383C22.5885 47.0958 20.6211 44.3249 20.5564 43.2773Z" fill="url(#paint4_linear_343_245)"/>
<path d="M47.5913 2.83164C47.6095 2.27806 47.154 1.8414 46.5611 1.84401C45.9412 1.84648 45.5747 2.15957 45.5607 2.69881C45.5449 3.30466 46.0672 3.86842 46.6304 3.8533C47.1639 3.83883 47.5726 3.40438 47.5913 2.83164Z" fill="url(#paint5_linear_343_245)"/>
<path fill-rule="evenodd" clip-rule="evenodd" d="M49.6487 52.9591C45.7999 56.5075 41.2831 58.6559 36.1153 59.4506C35.3458 59.5688 34.5683 59.6356 33.7904 59.6992L33.6349 59.7118L33.6347 59.7118C33.2527 59.743 32.8706 59.7741 32.4895 59.8109C25.6665 59.7615 19.7256 57.4244 14.7 52.9278C11.161 49.7616 8.78254 45.8405 7.81102 41.1122C6.90246 36.6908 6.96555 32.3378 8.38755 28.0435C9.46351 24.7945 11.1766 21.8997 13.5033 19.3716C16.6322 15.972 20.3909 13.5462 24.8422 12.2689C28.3397 11.2655 31.9097 10.942 35.5542 11.3397C41.4622 11.9846 46.4838 14.4018 50.7386 18.5143C54.3939 22.0476 56.4017 26.3599 57.1992 31.3216C57.9397 35.93 57.243 40.3705 55.5484 44.6343C54.2722 47.8456 52.2126 50.5955 49.6487 52.9591ZM21.2834 43.7731C21.0443 43.6565 20.8002 43.5374 20.5565 43.4023C20.6211 44.4498 22.5885 47.2207 24.1518 48.4632C26.7963 50.5642 29.8243 51.5419 33.208 51.2075C36.9501 50.8376 39.9884 49.1479 42.2169 46.1147L42.2645 46.0499C42.9199 45.1584 43.5936 44.2421 43.8518 42.9923C43.5737 43.1122 43.3069 43.2238 43.0491 43.3317C42.4399 43.5866 41.8809 43.8204 41.3412 44.0923C41.0208 44.2537 40.7289 44.5398 40.5183 44.8358C40.0575 45.4831 39.6197 46.1467 39.1388 46.8756C38.9432 47.1719 38.7406 47.4791 38.5263 47.8004C38.2662 47.5255 38.015 47.2586 37.7698 46.9981C37.0923 46.2782 36.4608 45.6072 35.8131 44.9522C35.6407 44.7778 35.3507 44.6194 35.116 44.6209C34.0647 44.6273 33.0135 44.645 31.9622 44.6626C30.7146 44.6836 29.467 44.7046 28.2193 44.7067C27.8252 44.7074 27.5945 44.7735 27.3495 45.0887C26.8931 45.6756 26.4115 46.2432 25.8982 46.8483C25.6853 47.0991 25.467 47.3565 25.2427 47.6243C25.0137 47.3558 24.7839 47.1011 24.5593 46.8521C24.0681 46.3074 23.6014 45.7901 23.2206 45.2163C22.7319 44.4799 22.032 44.1384 21.2834 43.7731Z" fill="black"/>
<path fill-rule="evenodd" clip-rule="evenodd" d="M47.423 28.8954C47.3023 31.8002 46.698 34.5108 44.7216 36.735C43.5786 38.0212 42.1886 38.8124 40.3652 38.6096C39.4998 38.5133 38.8327 38.0955 38.3405 37.4437C36.9101 35.5495 36.5263 33.4499 37.5789 31.2934C38.0096 30.4108 38.8212 29.7025 39.5023 28.9534C41.3554 26.9151 43.2327 24.8988 45.0972 22.8706C45.6446 22.2753 45.8377 22.245 46.1127 23.0063C46.5733 24.2817 46.9271 25.5999 47.2443 26.9197C47.3993 27.5637 47.3705 28.2515 47.423 28.8954Z" fill="#C1BCBC"/>
<path fill-rule="evenodd" clip-rule="evenodd" d="M17.0026 30.3595C17.1112 28.5714 17.6031 26.2675 18.8616 24.1737C19.0282 23.8965 19.2432 23.6485 19.4258 23.3802C19.7225 22.9449 20.011 23.0166 20.2994 23.3832C21.1969 24.5244 22.1035 25.6588 22.9873 26.8103C23.8579 27.9446 24.6519 29.1414 25.5749 30.2304C27.0978 32.0275 27.0426 33.959 26.1394 35.9361C25.544 37.2394 24.6942 38.3325 23.1048 38.6144C21.0473 38.9797 19.1209 37.5864 18.189 35.9053C17.3825 34.4511 17.0026 32.7813 17.0026 30.3595Z" fill="#C1BCBC"/>
<path fill-rule="evenodd" clip-rule="evenodd" d="M46.3031 38.6769C46.4821 38.2989 46.6016 37.8756 46.851 37.551C47.6297 36.5374 49.6968 36.0051 50.8933 36.4604C52.0963 36.9183 52.4014 38.0591 51.5885 39.0599C50.6289 40.2411 48.5897 40.7088 47.28 40.053C46.7308 39.7781 46.3882 39.3769 46.3031 38.6769Z" fill="#C23DA9"/>
<path fill-rule="evenodd" clip-rule="evenodd" d="M15.6197 40.471C14.3073 40.3893 13.2723 39.9779 12.4129 39.1843C11.7958 38.6146 11.8316 37.6306 12.4677 37.0361C12.9674 36.5691 13.5786 36.3687 14.2607 36.4038C15.2711 36.4557 16.166 36.8285 16.9502 37.4466C17.9764 38.2551 17.7365 39.7855 16.5023 40.2847C16.1881 40.4117 15.8291 40.429 15.6197 40.471Z" fill="#C23DA9"/>
<defs>
<linearGradient id="paint0_linear_343_245" x1="64" y1="-0.125002" x2="9.38355e-06" y2="63.875" gradientUnits="userSpaceOnUse">
<stop offset="0.2" stop-color="#C23DA9"/>
<stop offset="0.5" stop-color="#A265C6"/>
<stop offset="0.8" stop-color="#64B2FF"/>
</linearGradient>
<linearGradient id="paint1_linear_343_245" x1="64" y1="-0.125002" x2="9.38355e-06" y2="63.875" gradientUnits="userSpaceOnUse">
<stop offset="0.2" stop-color="#C23DA9"/>
<stop offset="0.5" stop-color="#A265C6"/>
<stop offset="0.8" stop-color="#64B2FF"/>
</linearGradient>
<linearGradient id="paint2_linear_343_245" x1="64" y1="-0.125002" x2="9.38355e-06" y2="63.875" gradientUnits="userSpaceOnUse">
<stop offset="0.2" stop-color="#C23DA9"/>
<stop offset="0.5" stop-color="#A265C6"/>
<stop offset="0.8" stop-color="#64B2FF"/>
</linearGradient>
<linearGradient id="paint3_linear_343_245" x1="64" y1="-0.125002" x2="9.38355e-06" y2="63.875" gradientUnits="userSpaceOnUse">
<stop offset="0.2" stop-color="#C23DA9"/>
<stop offset="0.5" stop-color="#A265C6"/>
<stop offset="0.8" stop-color="#64B2FF"/>
</linearGradient>
<linearGradient id="paint4_linear_343_245" x1="64" y1="-0.125002" x2="9.38355e-06" y2="63.875" gradientUnits="userSpaceOnUse">
<stop offset="0.2" stop-color="#C23DA9"/>
<stop offset="0.5" stop-color="#A265C6"/>
<stop offset="0.8" stop-color="#64B2FF"/>
</linearGradient>
<linearGradient id="paint5_linear_343_245" x1="64" y1="-0.125002" x2="9.38355e-06" y2="63.875" gradientUnits="userSpaceOnUse">
<stop offset="0.2" stop-color="#C23DA9"/>
<stop offset="0.5" stop-color="#A265C6"/>
<stop offset="0.8" stop-color="#64B2FF"/>
</linearGradient>
</defs>
</svg>
