<svg width="128" height="128" viewBox="0 0 128 128" fill="none" xmlns="http://www.w3.org/2000/svg">
<path fill-rule="evenodd" clip-rule="evenodd" d="M64.7342 123.694C56.9904 123.72 49.6308 121.957 42.5515 118.984C41.1332 118.388 39.7661 117.674 38.3983 116.958L38.3861 116.952C38.3836 116.951 38.3812 116.949 38.3787 116.948C38.2625 116.887 38.1462 116.827 38.03 116.766C37.1706 116.317 36.3092 115.873 35.4327 115.462C34.8299 115.179 34.0344 115.072 33.3748 115.178C28.8657 115.9 24.7946 115.149 21.4383 111.849C19.6062 110.048 18.5404 107.868 18.3328 105.293C18.0475 101.752 16.3421 99.243 13.0885 97.6551C12.5273 97.3811 12.1451 96.1077 12.1959 95.329C12.5294 90.1996 11.0515 85.6539 7.86614 81.6895C5.05302 78.1884 4.7033 72.3286 7.25833 67.9558C7.33069 67.8319 7.40215 67.7065 7.4736 67.5804L7.52307 67.4931L7.52321 67.4928C7.90964 66.8102 8.30168 66.1177 8.84064 65.5814C10.2075 64.222 10.5766 62.497 10.9435 60.7821C11.0343 60.3578 11.1249 59.934 11.2305 59.5166C15.1642 43.9788 24.1065 32.3144 38.2019 24.5374C41.8796 22.5085 45.6782 20.8252 49.7606 19.8754C52.4586 19.2477 54.3587 17.6129 56.2397 15.75C57.5456 14.4564 59.0795 13.3542 60.6356 12.36C61.9235 11.5372 63.4229 11.6112 64.7382 12.4142C67.0435 13.8214 69.0009 13.2865 70.8987 11.6136C70.9661 11.5542 71.0335 11.4947 71.101 11.4352C72.9525 9.80141 74.8175 8.15568 77.2625 7.41593C82.9121 5.70657 88.2708 7.74883 90.1746 13.708C90.3908 14.3848 90.3782 15.1786 90.2944 15.8976C90.0104 18.3296 91.1737 19.9245 93.2471 20.8833C96.8351 22.5419 100.459 24.125 104.082 25.7078L104.896 26.0635C108.152 27.4864 111.241 29.1572 113.554 31.9304C117.088 36.1682 118.981 40.9136 117.613 46.4888C117.188 48.2218 117.492 49.7899 118.245 51.2613C119.649 54.01 119.821 56.8742 118.955 59.7142C118.402 61.5313 118.431 63.2784 118.603 65.0748C119.303 72.368 118.603 79.4794 116.339 86.4886C112.058 99.7462 103.737 109.689 91.6676 116.507C84.5915 120.505 76.9348 122.872 68.7619 123.398C67.844 123.457 66.927 123.527 66.01 123.597L66.0095 123.597L66.0089 123.597C65.5841 123.63 65.1592 123.662 64.7342 123.694Z" fill="url(#paint0_linear_343_238)"/>
<path d="M112.187 12.5687C116.806 12.5609 120.195 16.9265 118.72 20.987C118.075 22.7639 116.7 23.6203 114.802 23.5689C113.661 23.5382 112.503 23.5851 111.375 23.7514C108.757 24.138 106.36 22.3888 106.077 19.6095C105.649 15.4142 108.919 12.4707 112.187 12.5687Z" fill="url(#paint1_linear_343_238)"/>
<path d="M7.84274 105.069C7.90713 103.27 9.34865 101.744 10.8933 101.838C12.2853 101.924 13.9299 103.794 13.8852 105.24C13.8354 106.852 12.2879 108.364 10.777 108.279C9.15859 108.187 7.78489 106.684 7.84274 105.069Z" fill="url(#paint2_linear_343_238)"/>
<path d="M119.478 27.5565C119.535 26.6553 120.047 26.1138 120.962 26.1269C121.956 26.1409 122.439 26.8148 122.446 27.7395C122.453 28.6084 121.875 29.1407 121.045 29.1368C120.111 29.1324 119.519 28.5901 119.478 27.5565Z" fill="url(#paint3_linear_343_238)"/>
<path fill-rule="evenodd" clip-rule="evenodd" d="M41.1129 86.5546C43.1266 87.6712 45.1515 88.2395 46.4412 90.1827C47.5511 91.855 49.0254 93.2875 50.4855 94.9987C52.0157 93.1713 53.4077 91.5881 54.699 89.9275C55.189 89.2971 55.6505 89.1649 56.4386 89.1636C61.0364 89.1555 65.6339 89.02 70.232 88.9918C70.7013 88.989 71.2814 89.3057 71.6261 89.6545C73.3904 91.4387 75.0944 93.282 77.0526 95.3509C78.535 93.128 79.7403 91.2426 81.0366 89.4217C81.4577 88.8297 82.0415 88.2575 82.6823 87.9347C84.2185 87.161 85.8325 86.5411 87.7036 85.7347C87.1871 88.2343 85.8398 90.067 84.529 91.8499C84.4972 91.8932 84.4654 91.9364 84.4337 91.9796C79.9767 98.0459 73.9003 101.425 66.4161 102.165C59.6485 102.834 53.5925 100.879 48.3036 96.6765C45.1769 94.1916 41.2422 88.6498 41.1129 86.5546Z" fill="url(#paint4_linear_343_238)"/>
<path d="M95.1825 5.66329C95.2189 4.55612 94.3081 3.6828 93.1223 3.68801C91.8823 3.69296 91.1494 4.31914 91.1214 5.39763C91.0897 6.60933 92.1344 7.73684 93.2607 7.7066C94.3279 7.67766 95.1451 6.80877 95.1825 5.66329Z" fill="url(#paint5_linear_343_238)"/>
<path fill-rule="evenodd" clip-rule="evenodd" d="M99.2974 105.918C91.5999 113.015 82.5661 117.312 72.2306 118.901C70.6915 119.138 69.1366 119.271 67.5807 119.398L67.2697 119.424L67.2694 119.424C66.5053 119.486 65.7413 119.548 64.979 119.622C51.333 119.523 39.4512 114.849 29.4 105.856C22.322 99.5231 17.5651 91.681 15.622 82.2243C13.8049 73.3817 13.9311 64.6756 16.7751 56.0871C18.927 49.589 22.3532 43.7993 27.0065 38.7432C33.2644 31.9441 40.7818 27.0923 49.6845 24.5378C56.6795 22.531 63.8194 21.8839 71.1084 22.6793C82.9244 23.9692 92.9676 28.8035 101.477 37.0286C108.788 44.0952 112.803 52.7197 114.398 62.6432C115.879 71.86 114.486 80.741 111.097 89.2685C108.544 95.6912 104.425 101.191 99.2974 105.918ZM42.5667 87.5463C42.0885 87.313 41.6004 87.0748 41.1129 86.8045C41.2422 88.8997 45.177 94.4415 48.3037 96.9264C53.5925 101.128 59.6486 103.084 66.4161 102.415C73.9003 101.675 79.9768 98.2958 84.4337 92.2295L84.5291 92.0998C85.8398 90.3169 87.1871 88.4842 87.7036 85.9846C87.1473 86.2243 86.6138 86.4476 86.0982 86.6633C84.8797 87.1732 83.7618 87.6409 82.6823 88.1846C82.0415 88.5073 81.4578 89.0795 81.0366 89.6716C80.1151 90.9662 79.2394 92.2933 78.2775 93.7512C77.8865 94.3439 77.4811 94.9582 77.0527 95.6008C76.5323 95.051 76.0299 94.5172 75.5396 93.9962C74.1846 92.5565 72.9216 91.2145 71.6261 89.9044C71.2814 89.5556 70.7014 89.2388 70.232 89.2417C68.1294 89.2546 66.0269 89.2899 63.9245 89.3252C61.4292 89.3672 58.934 89.4091 56.4386 89.4135C55.6505 89.4148 55.189 89.547 54.699 90.1773C53.7862 91.3512 52.8231 92.4864 51.7964 93.6965C51.3707 94.1983 50.934 94.713 50.4855 95.2486C50.0274 94.7117 49.5678 94.2022 49.1186 93.7041C48.1361 92.6148 47.2029 91.5802 46.4413 90.4326C45.4638 88.9598 44.0639 88.2768 42.5667 87.5463Z" fill="black"/>
<path fill-rule="evenodd" clip-rule="evenodd" d="M94.8459 57.7909C94.6046 63.6004 93.396 69.0215 89.4432 73.47C87.1572 76.0425 84.3771 77.6249 80.7303 77.2192C78.9996 77.0266 77.6654 76.1911 76.6809 74.8873C73.8202 71.099 73.0527 66.8997 75.1577 62.5868C76.0192 60.8217 77.6423 59.4051 79.0045 57.9069C82.7108 53.8302 86.4654 49.7975 90.1945 45.7411C91.2891 44.5506 91.6755 44.4901 92.2255 46.0125C93.1466 48.5634 93.8541 51.1998 94.4886 53.8393C94.7985 55.1274 94.741 56.5031 94.8459 57.7909Z" fill="#C1BCBC"/>
<path fill-rule="evenodd" clip-rule="evenodd" d="M34.005 60.719C34.2223 57.1428 35.206 52.5351 37.7231 48.3473C38.0563 47.7931 38.4864 47.297 38.8515 46.7605C39.4449 45.8898 40.0218 46.0331 40.5988 46.7664C42.3936 49.0488 44.2068 51.3176 45.9745 53.6206C47.7157 55.8892 49.3038 58.2828 51.1497 60.4609C54.1955 64.0551 54.085 67.918 52.2787 71.8722C51.0879 74.4789 49.3883 76.665 46.2095 77.2289C42.0944 77.9594 38.2416 75.1728 36.3779 71.8107C34.7649 68.9021 34.005 65.5626 34.005 60.719Z" fill="#C1BCBC"/>
<path fill-rule="evenodd" clip-rule="evenodd" d="M92.6063 77.3539C92.9644 76.5978 93.2034 75.7511 93.7021 75.102C95.2595 73.0749 99.3937 72.0102 101.787 72.9208C104.193 73.8366 104.803 76.1182 103.177 78.1198C101.258 80.4822 97.1795 81.4175 94.5601 80.106C93.4618 79.5562 92.7765 78.7538 92.6063 77.3539Z" fill="#C23DA9"/>
<path fill-rule="evenodd" clip-rule="evenodd" d="M31.2393 80.9418C28.6147 80.7783 26.5447 79.9555 24.8257 78.3684C23.5915 77.229 23.6632 75.261 24.9354 74.072C25.9348 73.1379 27.1572 72.7372 28.5215 72.8074C30.5423 72.9111 32.3319 73.6567 33.9004 74.8929C35.9528 76.51 35.473 79.5708 33.0046 80.5692C32.3761 80.8231 31.6581 80.8578 31.2393 80.9418Z" fill="#C23DA9"/>
<defs>
<linearGradient id="paint0_linear_343_238" x1="128" y1="-0.250004" x2="1.87671e-05" y2="127.75" gradientUnits="userSpaceOnUse">
<stop offset="0.2" stop-color="#C23DA9"/>
<stop offset="0.5" stop-color="#A265C6"/>
<stop offset="0.8" stop-color="#64B2FF"/>
</linearGradient>
<linearGradient id="paint1_linear_343_238" x1="128" y1="-0.250004" x2="1.87671e-05" y2="127.75" gradientUnits="userSpaceOnUse">
<stop offset="0.2" stop-color="#C23DA9"/>
<stop offset="0.5" stop-color="#A265C6"/>
<stop offset="0.8" stop-color="#64B2FF"/>
</linearGradient>
<linearGradient id="paint2_linear_343_238" x1="128" y1="-0.250004" x2="1.87671e-05" y2="127.75" gradientUnits="userSpaceOnUse">
<stop offset="0.2" stop-color="#C23DA9"/>
<stop offset="0.5" stop-color="#A265C6"/>
<stop offset="0.8" stop-color="#64B2FF"/>
</linearGradient>
<linearGradient id="paint3_linear_343_238" x1="128" y1="-0.250004" x2="1.87671e-05" y2="127.75" gradientUnits="userSpaceOnUse">
<stop offset="0.2" stop-color="#C23DA9"/>
<stop offset="0.5" stop-color="#A265C6"/>
<stop offset="0.8" stop-color="#64B2FF"/>
</linearGradient>
<linearGradient id="paint4_linear_343_238" x1="128" y1="-0.250004" x2="1.87671e-05" y2="127.75" gradientUnits="userSpaceOnUse">
<stop offset="0.2" stop-color="#C23DA9"/>
<stop offset="0.5" stop-color="#A265C6"/>
<stop offset="0.8" stop-color="#64B2FF"/>
</linearGradient>
<linearGradient id="paint5_linear_343_238" x1="128" y1="-0.250004" x2="1.87671e-05" y2="127.75" gradientUnits="userSpaceOnUse">
<stop offset="0.2" stop-color="#C23DA9"/>
<stop offset="0.5" stop-color="#A265C6"/>
<stop offset="0.8" stop-color="#64B2FF"/>
</linearGradient>
</defs>
</svg>
