<svg width="1024" height="1024" viewBox="0 0 1024 1024" fill="none" xmlns="http://www.w3.org/2000/svg">
<path fill-rule="evenodd" clip-rule="evenodd" d="M517.874 989.551C455.923 989.762 397.046 975.659 340.412 951.874C329.065 947.107 318.128 941.389 307.186 935.667L307.089 935.617C307.069 935.606 307.049 935.596 307.029 935.585C306.1 935.099 305.169 934.613 304.24 934.128C297.365 930.539 290.473 926.983 283.462 923.694C278.639 921.431 272.275 920.578 266.998 921.423C230.925 927.202 198.356 921.195 171.506 894.792C156.85 880.383 148.323 862.946 146.662 842.345C144.38 814.016 130.737 793.944 104.707 781.241C100.218 779.049 97.1606 768.861 97.5669 762.632C100.235 721.597 88.4116 685.231 62.9288 653.516C40.4239 625.508 37.6262 578.629 58.0664 543.646C58.6453 542.655 59.217 541.652 59.7885 540.643L60.1843 539.944L60.1854 539.942C63.2769 534.482 66.4132 528.942 70.7249 524.651C81.6597 513.776 84.6122 499.976 87.5474 486.257C88.2738 482.862 88.9991 479.472 89.844 476.133C121.314 351.831 192.851 258.515 305.615 196.299C335.037 180.068 365.426 166.601 398.085 159.004C419.668 153.982 434.869 140.903 449.917 126C460.364 115.652 472.636 106.834 485.085 98.8796C495.388 92.2976 507.383 92.89 517.905 99.3134C536.348 110.571 552.007 106.292 567.189 92.9089C567.729 92.4334 568.268 91.9575 568.807 91.4815C583.619 78.4113 598.54 65.2454 618.1 59.3274C663.296 45.6525 706.166 61.9906 721.397 109.664C723.126 115.078 723.025 121.429 722.355 127.181C720.083 146.637 729.389 159.396 745.976 167.066C774.68 180.336 803.669 193 832.654 205.663L839.167 208.508C865.213 219.891 889.931 233.257 908.434 255.443C936.702 289.346 951.845 327.309 940.905 371.91C937.505 385.775 939.94 398.319 945.956 410.09C957.191 432.08 958.565 454.994 951.642 477.714C947.213 492.25 947.445 506.227 948.823 520.599C954.427 578.944 948.823 635.835 930.715 691.909C896.46 797.969 829.894 877.516 733.341 932.059C676.732 964.037 615.478 982.975 550.095 987.182C542.751 987.652 535.416 988.215 528.08 988.778L528.076 988.778L528.071 988.778C524.672 989.039 521.273 989.3 517.874 989.551Z" fill="url(#paint0_linear_343_252)"/>
<path d="M897.493 100.55C934.449 100.487 961.557 135.412 949.763 167.896C944.604 182.111 933.604 188.962 918.415 188.551C909.289 188.305 900.023 188.681 891.002 190.011C870.057 193.104 850.88 179.11 848.614 156.876C845.192 123.314 871.351 99.7657 897.493 100.55Z" fill="url(#paint1_linear_343_252)"/>
<path d="M62.7417 840.549C63.2568 826.159 74.789 813.948 87.1461 814.708C98.2823 815.394 111.439 830.351 111.081 841.92C110.683 854.812 98.3031 866.915 86.2161 866.229C73.2685 865.497 62.2789 853.476 62.7417 840.549Z" fill="url(#paint2_linear_343_252)"/>
<path d="M955.826 220.452C956.28 213.242 960.378 208.911 967.699 209.015C975.648 209.128 979.511 214.518 979.57 221.916C979.625 228.867 974.997 233.126 968.363 233.094C960.885 233.059 956.148 228.721 955.826 220.452Z" fill="url(#paint3_linear_343_252)"/>
<path fill-rule="evenodd" clip-rule="evenodd" d="M328.903 692.437C345.013 701.369 361.212 705.916 371.53 721.461C380.408 734.84 392.203 746.3 403.883 759.99C416.125 745.37 427.261 732.705 437.591 719.42C441.512 714.377 445.203 713.319 451.509 713.309C488.291 713.244 525.071 712.16 561.856 711.935C565.61 711.912 570.251 714.446 573.009 717.236C587.123 731.51 600.755 746.256 616.421 762.807C628.279 745.024 637.923 729.941 648.292 715.374C651.662 710.637 656.332 706.06 661.458 703.478C673.748 697.288 686.66 692.329 701.628 685.878C697.496 705.875 686.718 720.536 676.232 734.799C675.978 735.145 675.723 735.491 675.469 735.837C639.814 784.367 591.202 811.402 531.328 817.321C477.188 822.671 428.74 807.029 386.429 773.412C361.415 753.533 329.937 709.198 328.903 692.437Z" fill="url(#paint4_linear_343_252)"/>
<path d="M761.46 45.3063C761.751 36.449 754.464 29.4624 744.978 29.5041C735.058 29.5437 729.195 34.5531 728.971 43.181C728.718 52.8746 737.075 61.8947 746.085 61.6528C754.623 61.4213 761.161 54.4701 761.46 45.3063Z" fill="url(#paint5_linear_343_252)"/>
<path fill-rule="evenodd" clip-rule="evenodd" d="M794.379 847.346C732.798 904.121 660.528 938.495 577.844 951.21C565.532 953.102 553.092 954.17 540.645 955.187L538.157 955.39L538.155 955.391C532.042 955.888 525.93 956.386 519.832 956.975C410.664 956.185 315.609 918.791 235.199 846.846C178.576 796.186 140.52 733.449 124.976 657.796C110.439 587.054 111.448 517.406 134.2 448.698C151.416 396.713 178.825 350.396 216.052 309.946C266.114 255.554 326.254 216.74 397.475 196.303C453.435 180.249 510.555 175.073 568.866 181.436C663.395 191.755 743.74 230.429 811.816 296.23C870.302 352.763 902.427 421.759 915.186 501.147C927.034 574.881 915.887 645.929 888.773 714.149C868.354 765.531 835.402 809.529 794.379 847.346ZM340.533 700.371C336.708 698.505 332.803 696.599 328.903 694.437C329.937 711.198 361.415 755.533 386.429 775.412C428.74 809.029 477.188 824.671 531.328 819.321C591.202 813.402 639.814 786.367 675.469 737.837L676.232 736.799C686.718 722.536 697.496 707.875 701.628 687.878C697.178 689.796 692.91 691.582 688.785 693.307C679.037 697.386 670.094 701.128 661.458 705.478C656.332 708.06 651.662 712.637 648.292 717.374C640.92 727.73 633.915 738.347 626.22 750.01C623.091 754.752 619.849 759.667 616.421 764.807C612.258 760.409 608.239 756.139 604.316 751.971C593.476 740.453 583.372 729.717 573.009 719.236C570.251 716.446 565.61 713.912 561.856 713.935C545.035 714.038 528.215 714.32 511.395 714.603C491.433 714.938 471.471 715.274 451.509 715.309C445.203 715.319 441.512 716.377 437.591 721.42C430.289 730.811 422.584 739.892 414.371 749.573C410.965 753.587 407.472 757.705 403.883 761.99C400.218 757.694 396.542 753.619 392.948 749.634C385.088 740.92 377.623 732.642 371.53 723.461C363.71 711.679 352.511 706.215 340.533 700.371Z" fill="black"/>
<path fill-rule="evenodd" clip-rule="evenodd" d="M758.767 462.326C756.837 508.802 747.168 552.171 715.545 587.759C697.258 608.339 675.017 620.998 645.842 617.753C631.996 616.212 621.323 609.528 613.447 599.098C590.561 568.791 584.421 535.197 601.262 500.694C608.153 486.573 621.139 475.24 632.036 463.254C661.686 430.64 691.724 398.379 721.556 365.928C730.313 356.404 733.404 355.92 737.804 368.099C745.173 388.506 750.833 409.597 755.909 430.714C758.388 441.018 757.928 452.024 758.767 462.326Z" fill="#C1BCBC"/>
<path fill-rule="evenodd" clip-rule="evenodd" d="M272.04 485.751C273.778 457.142 281.648 420.28 301.785 386.778C304.451 382.344 307.891 378.375 310.812 374.083C315.56 367.118 320.175 368.264 324.79 374.131C339.149 392.39 353.655 410.541 367.796 428.964C381.726 447.113 394.431 466.262 409.198 483.687C433.564 512.44 432.681 543.344 418.23 574.977C408.704 595.83 395.107 613.32 369.676 617.831C336.756 623.674 305.933 601.382 291.024 574.485C278.12 551.217 272.04 524.501 272.04 485.751Z" fill="#C1BCBC"/>
<path fill-rule="evenodd" clip-rule="evenodd" d="M740.85 618.83C743.715 612.782 745.627 606.008 749.616 600.815C762.076 584.598 795.149 576.08 814.293 583.365C833.542 590.692 838.423 608.944 825.417 624.957C810.063 643.856 777.436 651.339 756.48 640.847C747.694 636.448 742.211 630.029 740.85 618.83Z" fill="#C23DA9"/>
<path fill-rule="evenodd" clip-rule="evenodd" d="M249.915 647.535C228.918 646.227 212.358 639.645 198.606 626.948C188.733 617.832 189.306 602.088 199.483 592.576C207.479 585.104 217.258 581.898 228.172 582.459C244.338 583.289 258.656 589.254 271.203 599.144C287.623 612.08 283.784 636.567 264.037 644.554C259.009 646.585 253.265 646.863 249.915 647.535Z" fill="#C23DA9"/>
<defs>
<linearGradient id="paint0_linear_343_252" x1="1024" y1="-2.00004" x2="-9.40038e-05" y2="1022" gradientUnits="userSpaceOnUse">
<stop offset="0.2" stop-color="#C23DA9"/>
<stop offset="0.5" stop-color="#A265C6"/>
<stop offset="0.8" stop-color="#64B2FF"/>
</linearGradient>
<linearGradient id="paint1_linear_343_252" x1="1024" y1="-2.00004" x2="-9.40038e-05" y2="1022" gradientUnits="userSpaceOnUse">
<stop offset="0.2" stop-color="#C23DA9"/>
<stop offset="0.5" stop-color="#A265C6"/>
<stop offset="0.8" stop-color="#64B2FF"/>
</linearGradient>
<linearGradient id="paint2_linear_343_252" x1="1024" y1="-2.00004" x2="-9.40038e-05" y2="1022" gradientUnits="userSpaceOnUse">
<stop offset="0.2" stop-color="#C23DA9"/>
<stop offset="0.5" stop-color="#A265C6"/>
<stop offset="0.8" stop-color="#64B2FF"/>
</linearGradient>
<linearGradient id="paint3_linear_343_252" x1="1024" y1="-2.00004" x2="-9.40038e-05" y2="1022" gradientUnits="userSpaceOnUse">
<stop offset="0.2" stop-color="#C23DA9"/>
<stop offset="0.5" stop-color="#A265C6"/>
<stop offset="0.8" stop-color="#64B2FF"/>
</linearGradient>
<linearGradient id="paint4_linear_343_252" x1="1024" y1="-2.00004" x2="-9.40038e-05" y2="1022" gradientUnits="userSpaceOnUse">
<stop offset="0.2" stop-color="#C23DA9"/>
<stop offset="0.5" stop-color="#A265C6"/>
<stop offset="0.8" stop-color="#64B2FF"/>
</linearGradient>
<linearGradient id="paint5_linear_343_252" x1="1024" y1="-2.00004" x2="-9.40038e-05" y2="1022" gradientUnits="userSpaceOnUse">
<stop offset="0.2" stop-color="#C23DA9"/>
<stop offset="0.5" stop-color="#A265C6"/>
<stop offset="0.8" stop-color="#64B2FF"/>
</linearGradient>
</defs>
</svg>
