<svg width="512" height="512" viewBox="0 0 512 512" fill="none" xmlns="http://www.w3.org/2000/svg">
<path fill-rule="evenodd" clip-rule="evenodd" d="M258.937 494.776C227.961 494.881 198.523 487.83 170.206 475.937C164.533 473.554 159.064 470.694 153.593 467.834L153.544 467.808C153.534 467.803 153.524 467.798 153.515 467.793C153.05 467.55 152.585 467.307 152.12 467.064C148.682 465.269 145.237 463.491 141.731 461.847C139.319 460.716 136.137 460.289 133.499 460.711C115.463 463.601 99.1781 460.598 85.753 447.396C78.4248 440.192 74.1615 431.473 73.3312 421.173C72.19 407.008 65.3684 396.972 52.3537 390.621C50.1089 389.525 48.5803 384.431 48.7834 381.316C50.1174 360.798 44.2058 342.616 31.4644 326.758C20.2119 312.754 18.8131 289.314 29.0332 271.823C29.3227 271.328 29.6085 270.826 29.8943 270.322L30.0921 269.972L30.0927 269.971C31.6384 267.241 33.2066 264.471 35.3624 262.326C40.8299 256.888 42.3061 249.988 43.7737 243.129C44.1369 241.431 44.4995 239.736 44.922 238.066C60.6568 175.915 96.4257 129.258 152.807 98.1497C167.518 90.0338 182.713 83.3006 199.042 79.5018C209.834 76.9908 217.435 70.4516 224.959 63C230.182 57.8258 236.318 53.4169 242.542 49.4398C247.694 46.1488 253.691 46.445 258.953 49.6567C268.174 55.2856 276.004 53.1459 283.595 46.4544C283.864 46.2167 284.134 45.9788 284.404 45.7407C291.81 39.2057 299.27 32.6227 309.05 29.6637C331.648 22.8263 353.083 30.9953 360.698 54.832C361.563 57.539 361.513 60.7143 361.178 63.5903C360.042 73.3183 364.695 79.6979 372.988 83.5332C387.34 90.1678 401.835 96.5 416.327 102.831L419.584 104.254C432.607 109.946 444.966 116.629 454.217 127.722C468.351 144.673 475.922 163.654 470.453 185.955C468.752 192.887 469.97 199.16 472.978 205.045C478.595 216.04 479.282 227.497 475.821 238.857C473.606 246.125 473.723 253.114 474.411 260.299C477.213 289.472 474.411 317.918 465.358 345.955C448.23 398.985 414.947 438.758 366.67 466.03C338.366 482.018 307.739 491.488 275.047 493.591C271.376 493.826 267.708 494.107 264.04 494.389L264.038 494.389L264.036 494.389C262.336 494.519 260.637 494.65 258.937 494.776Z" fill="url(#paint0_linear_338_34)"/>
<path d="M448.747 50.275C467.225 50.2437 480.779 67.7059 474.882 83.9481C472.302 91.0556 466.802 94.4811 459.208 94.2757C454.645 94.1527 450.012 94.3403 445.501 95.0056C435.028 96.552 425.44 89.5551 424.307 78.4381C422.596 61.6568 435.675 49.8829 448.747 50.275Z" fill="url(#paint1_linear_338_34)"/>
<path d="M31.3708 420.275C31.6284 413.08 37.3945 406.974 43.573 407.354C49.1412 407.697 55.7196 415.176 55.5406 420.96C55.3416 427.406 49.1515 433.457 43.108 433.114C36.6342 432.748 31.1394 426.738 31.3708 420.275Z" fill="url(#paint2_linear_338_34)"/>
<path d="M477.913 110.226C478.14 106.621 480.189 104.455 483.849 104.507C487.824 104.564 489.756 107.259 489.785 110.958C489.812 114.433 487.498 116.563 484.181 116.547C480.442 116.529 478.074 114.36 477.913 110.226Z" fill="url(#paint3_linear_338_34)"/>
<path fill-rule="evenodd" clip-rule="evenodd" d="M164.451 346.219C172.506 350.685 180.606 352.958 185.765 360.731C190.204 367.42 196.101 373.15 201.942 379.995C208.063 372.685 213.631 366.352 218.796 359.71C220.756 357.188 222.602 356.66 225.754 356.654C244.145 356.622 262.536 356.08 280.928 355.967C282.805 355.956 285.125 357.223 286.504 358.618C293.561 365.755 300.377 373.128 308.21 381.404C314.14 372.512 318.961 364.971 324.146 357.687C325.831 355.319 328.166 353.03 330.729 351.739C336.874 348.644 343.33 346.164 350.814 342.939C348.748 352.937 343.359 360.268 338.116 367.4C337.989 367.573 337.862 367.746 337.735 367.918C319.907 392.184 295.601 405.701 265.664 408.661C238.594 411.335 214.37 403.514 193.214 386.706C180.708 376.766 164.969 354.599 164.451 346.219Z" fill="url(#paint4_linear_338_34)"/>
<path d="M380.73 22.6531C380.876 18.2245 377.232 14.7312 372.489 14.752C367.529 14.7719 364.597 17.2766 364.485 21.5905C364.359 26.4373 368.537 30.9473 373.043 30.8264C377.311 30.7106 380.58 27.2351 380.73 22.6531Z" fill="url(#paint5_linear_338_34)"/>
<path fill-rule="evenodd" clip-rule="evenodd" d="M397.189 423.673C366.399 452.061 330.264 469.247 288.922 475.605C282.766 476.551 276.546 477.085 270.323 477.594L269.079 477.695L269.077 477.695C266.021 477.944 262.965 478.193 259.916 478.487C205.332 478.092 157.805 459.395 117.6 423.423C89.2878 398.093 70.2601 366.724 62.4879 328.898C55.2194 293.527 55.7241 258.703 67.1002 224.349C75.7078 198.357 89.4126 175.198 108.026 154.973C133.057 127.777 163.127 108.37 198.738 98.1517C226.718 90.1245 255.278 87.5363 284.433 90.7178C331.697 95.8774 371.87 115.215 405.908 148.115C435.151 176.381 451.213 210.879 457.593 250.573C463.517 287.441 457.944 322.965 444.387 357.075C434.177 382.765 417.701 404.765 397.189 423.673ZM170.267 350.186C168.354 349.252 166.401 348.3 164.451 347.219C164.969 355.599 180.708 377.766 193.214 387.706C214.37 404.514 238.594 412.335 265.664 409.661C295.601 406.701 319.907 393.184 337.735 368.918L338.116 368.4C343.359 361.268 348.748 353.937 350.814 343.939C348.589 344.898 346.455 345.791 344.393 346.654C339.519 348.693 335.047 350.564 330.729 352.739C328.166 354.03 325.831 356.319 324.146 358.687C320.46 363.865 316.957 369.174 313.11 375.005C311.546 377.376 309.924 379.833 308.21 382.404C306.129 380.205 304.119 378.069 302.158 375.985C296.738 370.226 291.686 364.858 286.504 359.618C285.125 358.223 282.805 356.956 280.928 356.967C272.518 357.019 264.108 357.16 255.698 357.301C245.717 357.469 235.736 357.637 225.754 357.654C222.602 357.66 220.756 358.188 218.796 360.71C215.145 365.405 211.292 369.946 207.185 374.787C205.482 376.794 203.736 378.852 201.942 380.995C200.109 378.847 198.271 376.809 196.474 374.817C192.544 370.46 188.811 366.321 185.765 361.731C181.855 355.84 176.256 353.108 170.267 350.186Z" fill="black"/>
<path fill-rule="evenodd" clip-rule="evenodd" d="M379.384 231.163C378.418 254.401 373.584 276.086 357.773 293.879C348.629 304.17 337.509 310.499 322.921 308.877C315.998 308.106 310.662 304.764 306.724 299.549C295.281 284.395 292.211 267.598 300.631 250.347C304.077 243.286 310.569 237.62 316.018 231.627C330.843 215.32 345.862 199.19 360.778 182.964C365.157 178.202 366.702 177.96 368.902 184.05C372.586 194.253 375.416 204.799 377.954 215.357C379.194 220.509 378.964 226.012 379.384 231.163Z" fill="#C1BCBC"/>
<path fill-rule="evenodd" clip-rule="evenodd" d="M136.02 242.876C136.889 228.571 140.824 210.14 150.892 193.389C152.225 191.172 153.946 189.188 155.406 187.042C157.78 183.559 160.087 184.132 162.395 187.066C169.575 196.195 176.827 205.27 183.898 214.482C190.863 223.556 197.215 233.131 204.599 241.843C216.782 256.22 216.34 271.672 209.115 287.489C204.352 297.915 197.553 306.66 184.838 308.915C168.378 311.837 152.967 300.691 145.512 287.242C139.06 275.608 136.02 262.25 136.02 242.876Z" fill="#C1BCBC"/>
<path fill-rule="evenodd" clip-rule="evenodd" d="M370.425 309.415C371.857 306.391 372.813 303.004 374.808 300.408C381.038 292.299 397.575 288.04 407.147 291.683C416.771 295.346 419.212 304.472 412.709 312.479C405.032 321.928 388.718 325.67 378.24 320.423C373.847 318.224 371.106 315.015 370.425 309.415Z" fill="#C23DA9"/>
<path fill-rule="evenodd" clip-rule="evenodd" d="M124.957 323.768C114.459 323.114 106.179 319.823 99.303 313.474C94.3663 308.916 94.6531 301.044 99.7417 296.288C103.739 292.552 108.629 290.949 114.086 291.23C122.169 291.645 129.328 294.627 135.602 299.572C143.811 306.04 141.892 318.284 132.019 322.277C129.505 323.293 126.633 323.432 124.957 323.768Z" fill="#C23DA9"/>
<defs>
<linearGradient id="paint0_linear_338_34" x1="512" y1="-1.00002" x2="-4.70019e-05" y2="511" gradientUnits="userSpaceOnUse">
<stop offset="0.2" stop-color="#C23DA9"/>
<stop offset="0.5" stop-color="#A265C6"/>
<stop offset="0.8" stop-color="#64B2FF"/>
</linearGradient>
<linearGradient id="paint1_linear_338_34" x1="512" y1="-1.00002" x2="-4.70019e-05" y2="511" gradientUnits="userSpaceOnUse">
<stop offset="0.2" stop-color="#C23DA9"/>
<stop offset="0.5" stop-color="#A265C6"/>
<stop offset="0.8" stop-color="#64B2FF"/>
</linearGradient>
<linearGradient id="paint2_linear_338_34" x1="512" y1="-1.00002" x2="-4.70019e-05" y2="511" gradientUnits="userSpaceOnUse">
<stop offset="0.2" stop-color="#C23DA9"/>
<stop offset="0.5" stop-color="#A265C6"/>
<stop offset="0.8" stop-color="#64B2FF"/>
</linearGradient>
<linearGradient id="paint3_linear_338_34" x1="512" y1="-1.00002" x2="-4.70019e-05" y2="511" gradientUnits="userSpaceOnUse">
<stop offset="0.2" stop-color="#C23DA9"/>
<stop offset="0.5" stop-color="#A265C6"/>
<stop offset="0.8" stop-color="#64B2FF"/>
</linearGradient>
<linearGradient id="paint4_linear_338_34" x1="512" y1="-1.00002" x2="-4.70019e-05" y2="511" gradientUnits="userSpaceOnUse">
<stop offset="0.2" stop-color="#C23DA9"/>
<stop offset="0.5" stop-color="#A265C6"/>
<stop offset="0.8" stop-color="#64B2FF"/>
</linearGradient>
<linearGradient id="paint5_linear_338_34" x1="512" y1="-1.00002" x2="-4.70019e-05" y2="511" gradientUnits="userSpaceOnUse">
<stop offset="0.2" stop-color="#C23DA9"/>
<stop offset="0.5" stop-color="#A265C6"/>
<stop offset="0.8" stop-color="#64B2FF"/>
</linearGradient>
</defs>
</svg>
