<svg width="256" height="256" viewBox="0 0 256 256" fill="none" xmlns="http://www.w3.org/2000/svg">
<path fill-rule="evenodd" clip-rule="evenodd" d="M129.468 247.388C113.981 247.44 99.2616 243.915 85.1031 237.968C82.2663 236.777 79.5321 235.347 76.7966 233.917L76.7723 233.904C76.7673 233.902 76.7623 233.899 76.7573 233.896C76.5249 233.775 76.2924 233.653 76.06 233.532C74.3413 232.635 72.6183 231.746 70.8654 230.923C69.6598 230.358 68.0688 230.145 66.7495 230.356C57.7314 231.8 49.5891 230.299 42.8766 223.698C39.2125 220.096 37.0808 215.737 36.6657 210.586C36.095 203.504 32.6842 198.486 26.1769 195.31C25.0545 194.762 24.2902 192.215 24.3918 190.658C25.0587 180.399 22.103 171.308 15.7323 163.379C10.106 156.377 9.4066 144.657 14.5167 135.912C14.6614 135.664 14.8043 135.413 14.9472 135.161L15.0461 134.986L15.0464 134.986C15.8193 133.62 16.6034 132.235 17.6813 131.163C20.415 128.444 21.1531 124.994 21.8869 121.564C22.0685 120.716 22.2498 119.868 22.4611 119.033C30.3285 87.9576 48.2129 64.6288 76.4038 49.0749C83.7592 45.0169 91.3565 41.6503 99.5213 39.7509C104.917 38.4954 108.717 35.2258 112.479 31.5C115.091 28.9129 118.159 26.7085 121.271 24.7199C123.847 23.0744 126.846 23.2225 129.476 24.8284C134.087 27.6428 138.002 26.5729 141.797 23.2272C141.932 23.1084 142.067 22.9894 142.202 22.8704C145.905 19.6028 149.635 16.3114 154.525 14.8319C165.824 11.4131 176.542 15.4977 180.349 27.416C180.782 28.7695 180.756 30.3571 180.589 31.7951C180.021 36.6591 182.347 39.849 186.494 41.7666C193.67 45.0839 200.917 48.25 208.164 51.4156L209.792 52.127C216.303 54.9728 222.483 58.3143 227.109 63.8608C234.176 72.3364 237.961 81.8272 235.226 92.9775C234.376 96.4437 234.985 99.5798 236.489 102.523C239.298 108.02 239.641 113.748 237.91 119.428C236.803 123.063 236.861 126.557 237.206 130.15C238.607 144.736 237.206 158.959 232.679 172.977C224.115 199.492 207.474 219.379 183.335 233.015C169.183 241.009 153.87 245.744 137.524 246.796C135.688 246.913 133.854 247.054 132.02 247.194L132.019 247.194L132.018 247.195C131.168 247.26 130.318 247.325 129.468 247.388Z" fill="url(#paint0_linear_343_231)"/>
<path d="M224.373 25.1375C233.612 25.1218 240.389 33.8529 237.441 41.974C236.151 45.5278 233.401 47.2406 229.604 47.1379C227.322 47.0763 225.006 47.1702 222.751 47.5028C217.514 48.276 212.72 44.7776 212.153 39.2191C211.298 30.8284 217.838 24.9414 224.373 25.1375Z" fill="url(#paint1_linear_343_231)"/>
<path d="M15.6855 210.137C15.8143 206.54 18.6973 203.487 21.7866 203.677C24.5706 203.848 27.8599 207.588 27.7703 210.48C27.6709 213.703 24.5758 216.729 21.5541 216.557C18.3172 216.374 15.5698 213.369 15.6855 210.137Z" fill="url(#paint2_linear_343_231)"/>
<path d="M238.956 55.1129C239.07 53.3105 240.095 52.2277 241.925 52.2537C243.912 52.2819 244.878 53.6296 244.893 55.479C244.906 57.2167 243.749 58.2814 242.091 58.2736C240.221 58.2647 239.037 57.1802 238.956 55.1129Z" fill="url(#paint3_linear_343_231)"/>
<path fill-rule="evenodd" clip-rule="evenodd" d="M82.2258 173.109C86.2532 175.342 90.3031 176.479 92.8825 180.365C95.1022 183.71 98.0507 186.575 100.971 189.997C104.031 186.343 106.815 183.176 109.398 179.855C110.378 178.594 111.301 178.33 112.877 178.327C122.073 178.311 131.268 178.04 140.464 177.984C141.403 177.978 142.563 178.611 143.252 179.309C146.781 182.877 150.189 186.564 154.105 190.702C157.07 186.256 159.481 182.485 162.073 178.843C162.915 177.659 164.083 176.515 165.365 175.869C168.437 174.322 171.665 173.082 175.407 171.469C174.374 176.469 171.68 180.134 169.058 183.7C168.994 183.786 168.931 183.873 168.867 183.959C159.953 196.092 147.801 202.851 132.832 204.33C119.297 205.668 107.185 201.757 96.6073 193.353C90.3539 188.383 82.4844 177.3 82.2258 173.109Z" fill="url(#paint4_linear_343_231)"/>
<path d="M190.365 11.3266C190.438 9.11225 188.616 7.3656 186.245 7.37602C183.765 7.38593 182.299 8.63829 182.243 10.7953C182.179 13.2187 184.269 15.4737 186.521 15.4132C188.656 15.3553 190.29 13.6175 190.365 11.3266Z" fill="url(#paint5_linear_343_231)"/>
<path fill-rule="evenodd" clip-rule="evenodd" d="M198.595 211.837C183.2 226.03 165.132 234.624 144.461 237.803C141.383 238.276 138.273 238.543 135.161 238.797L134.539 238.848L134.539 238.848C133.011 238.972 131.482 239.096 129.958 239.244C102.666 239.046 78.9024 229.698 58.7998 211.711C44.6439 199.047 35.13 183.362 31.244 164.449C27.6097 146.764 27.8621 129.351 33.5501 112.174C37.8539 99.1783 44.7063 87.5989 54.0129 77.4866C66.5286 63.8884 81.5635 54.1849 99.3689 49.0759C113.359 45.0622 127.639 43.7681 142.217 45.3589C165.849 47.9387 185.935 57.6073 202.954 74.0575C217.575 88.1907 225.607 105.44 228.796 125.287C231.759 143.72 228.972 161.482 222.193 178.537C217.089 191.383 208.85 202.382 198.595 211.837ZM85.1334 175.093C84.177 174.626 83.2007 174.15 82.2257 173.609C82.4843 177.8 90.3538 188.883 96.6072 193.853C107.185 202.257 119.297 206.168 132.832 204.83C147.8 203.351 159.953 196.592 168.867 184.459L169.058 184.2C171.679 180.634 174.374 176.969 175.407 171.969C174.295 172.449 173.227 172.895 172.196 173.327C169.759 174.347 167.524 175.282 165.365 176.369C164.083 177.015 162.915 178.159 162.073 179.343C160.23 181.933 158.479 184.587 156.555 187.503C155.773 188.688 154.962 189.917 154.105 191.202C153.064 190.102 152.06 189.035 151.079 187.993C148.369 185.113 145.843 182.429 143.252 179.809C142.563 179.111 141.403 178.478 140.464 178.484C136.259 178.509 132.054 178.58 127.849 178.651C122.858 178.735 117.868 178.818 112.877 178.827C111.301 178.83 110.378 179.094 109.398 180.355C107.572 182.703 105.646 184.973 103.593 187.393C102.741 188.397 101.868 189.426 100.971 190.497C100.055 189.424 99.1355 188.405 98.2371 187.409C96.2721 185.23 94.4056 183.161 92.8824 180.865C90.9275 177.92 88.1278 176.554 85.1334 175.093Z" fill="black"/>
<path fill-rule="evenodd" clip-rule="evenodd" d="M189.692 115.582C189.209 127.201 186.792 138.043 178.886 146.94C174.314 152.085 168.754 155.25 161.461 154.438C157.999 154.053 155.331 152.382 153.362 149.774C147.64 142.198 146.105 133.799 150.315 125.173C152.038 121.643 155.285 118.81 158.009 115.814C165.422 107.66 172.931 99.5948 180.389 91.482C182.578 89.1009 183.351 88.9799 184.451 92.0248C186.293 97.1266 187.708 102.399 188.977 107.678C189.597 110.255 189.482 113.006 189.692 115.582Z" fill="#C1BCBC"/>
<path fill-rule="evenodd" clip-rule="evenodd" d="M68.0101 121.438C68.4447 114.285 70.4121 105.07 75.4462 96.6944C76.1127 95.5859 76.9728 94.5937 77.7031 93.5207C78.8899 91.7793 80.0438 92.066 81.1976 93.5327C84.7874 98.0974 88.4137 102.635 91.949 107.241C95.4315 111.778 98.6077 116.565 102.299 120.922C108.391 128.11 108.17 135.836 104.557 143.744C102.176 148.957 98.7767 153.33 92.4191 154.458C84.1889 155.918 76.4834 150.345 72.7559 143.621C69.53 137.804 68.0101 131.125 68.0101 121.438Z" fill="#C1BCBC"/>
<path fill-rule="evenodd" clip-rule="evenodd" d="M185.213 154.707C185.929 153.195 186.407 151.502 187.404 150.204C190.519 146.149 198.787 144.02 203.573 145.841C208.386 147.673 209.606 152.236 206.354 156.239C202.516 160.964 194.359 162.835 189.12 160.212C186.923 159.112 185.553 157.507 185.213 154.707Z" fill="#C23DA9"/>
<path fill-rule="evenodd" clip-rule="evenodd" d="M62.4787 161.884C57.2293 161.557 53.0894 159.911 49.6515 156.737C47.1831 154.458 47.3265 150.522 49.8708 148.144C51.8696 146.276 54.3144 145.475 57.0429 145.615C61.0845 145.822 64.6638 147.314 67.8007 149.786C71.9056 153.02 70.946 159.142 66.0092 161.139C64.7522 161.646 63.3163 161.716 62.4787 161.884Z" fill="#C23DA9"/>
<defs>
<linearGradient id="paint0_linear_343_231" x1="256" y1="-0.500009" x2="3.75342e-05" y2="255.5" gradientUnits="userSpaceOnUse">
<stop offset="0.2" stop-color="#C23DA9"/>
<stop offset="0.5" stop-color="#A265C6"/>
<stop offset="0.8" stop-color="#64B2FF"/>
</linearGradient>
<linearGradient id="paint1_linear_343_231" x1="256" y1="-0.500009" x2="3.75342e-05" y2="255.5" gradientUnits="userSpaceOnUse">
<stop offset="0.2" stop-color="#C23DA9"/>
<stop offset="0.5" stop-color="#A265C6"/>
<stop offset="0.8" stop-color="#64B2FF"/>
</linearGradient>
<linearGradient id="paint2_linear_343_231" x1="256" y1="-0.500009" x2="3.75342e-05" y2="255.5" gradientUnits="userSpaceOnUse">
<stop offset="0.2" stop-color="#C23DA9"/>
<stop offset="0.5" stop-color="#A265C6"/>
<stop offset="0.8" stop-color="#64B2FF"/>
</linearGradient>
<linearGradient id="paint3_linear_343_231" x1="256" y1="-0.500009" x2="3.75342e-05" y2="255.5" gradientUnits="userSpaceOnUse">
<stop offset="0.2" stop-color="#C23DA9"/>
<stop offset="0.5" stop-color="#A265C6"/>
<stop offset="0.8" stop-color="#64B2FF"/>
</linearGradient>
<linearGradient id="paint4_linear_343_231" x1="256" y1="-0.500009" x2="3.75342e-05" y2="255.5" gradientUnits="userSpaceOnUse">
<stop offset="0.2" stop-color="#C23DA9"/>
<stop offset="0.5" stop-color="#A265C6"/>
<stop offset="0.8" stop-color="#64B2FF"/>
</linearGradient>
<linearGradient id="paint5_linear_343_231" x1="256" y1="-0.500009" x2="3.75342e-05" y2="255.5" gradientUnits="userSpaceOnUse">
<stop offset="0.2" stop-color="#C23DA9"/>
<stop offset="0.5" stop-color="#A265C6"/>
<stop offset="0.8" stop-color="#64B2FF"/>
</linearGradient>
</defs>
</svg>
